<svg width="1600" height="1000" viewBox="0 0 1600 1000" fill="none" xmlns="http://www.w3.org/2000/svg">
  <defs>
    <linearGradient id="bg" x1="180" y1="100" x2="1440" y2="900" gradientUnits="userSpaceOnUse">
      <stop stop-color="#0D2031"/>
      <stop offset="1" stop-color="#18456A"/>
    </linearGradient>
    <linearGradient id="phone" x1="980" y1="180" x2="1260" y2="784" gradientUnits="userSpaceOnUse">
      <stop stop-color="#FDFEFF"/>
      <stop offset="1" stop-color="#EBF4FA"/>
    </linearGradient>
  </defs>
  <rect width="1600" height="1000" rx="52" fill="url(#bg)"/>
  <circle cx="292" cy="200" r="170" fill="#20CFE4" fill-opacity="0.15"/>
  <circle cx="1320" cy="820" r="240" fill="#64B4FF" fill-opacity="0.10"/>
  <text x="170" y="230" fill="#F7FCFF" font-family="Poppins, Arial, sans-serif" font-size="68" font-weight="700">Laundry app orchestration</text>
  <text x="170" y="290" fill="#A8C0D5" font-family="Poppins, Arial, sans-serif" font-size="28" font-weight="500">Operations dashboard and mobile booking experience</text>
  <rect x="170" y="356" width="272" height="82" rx="24" fill="#F1FBFF" fill-opacity="0.14"/>
  <text x="212" y="409" fill="#FFFFFF" font-family="Poppins, Arial, sans-serif" font-size="30" font-weight="600">Project Manager</text>
  <rect x="170" y="500" width="520" height="248" rx="34" fill="#F8FCFF"/>
  <text x="216" y="564" fill="#1E425A" font-family="Poppins, Arial, sans-serif" font-size="34" font-weight="700">Operations visibility</text>
  <rect x="216" y="604" width="428" height="26" rx="13" fill="#DDEBF4"/>
  <rect x="216" y="652" width="372" height="26" rx="13" fill="#E8F2F8"/>
  <rect x="216" y="700" width="298" height="26" rx="13" fill="#E8F2F8"/>
  <rect x="786" y="126" width="370" height="748" rx="52" fill="#0D2031"/>
  <rect x="812" y="152" width="318" height="696" rx="42" fill="url(#phone)"/>
  <rect x="866" y="186" width="210" height="14" rx="7" fill="#D8E5EE"/>
  <rect x="846" y="244" width="250" height="110" rx="28" fill="#0F2C41"/>
  <circle cx="904" cy="300" r="30" fill="#21D4E8"/>
  <circle cx="904" cy="300" r="18" fill="#F8FCFF"/>
  <path d="M884 300H924" stroke="#21D4E8" stroke-width="10" stroke-linecap="round"/>
  <text x="958" y="292" fill="#F4FBFF" font-family="Poppins, Arial, sans-serif" font-size="24" font-weight="600">Wash cycle</text>
  <text x="958" y="328" fill="#B7D2E2" font-family="Poppins, Arial, sans-serif" font-size="20" font-weight="500">Pickup, cleaning, ready</text>
  <rect x="846" y="388" width="250" height="118" rx="28" fill="#E6F9FD"/>
  <text x="878" y="438" fill="#21657B" font-family="Poppins, Arial, sans-serif" font-size="22" font-weight="600">Customer status</text>
  <rect x="878" y="462" width="110" height="20" rx="10" fill="#97E6F0"/>
  <rect x="846" y="540" width="250" height="214" rx="28" fill="#F7FBFF"/>
  <rect x="878" y="580" width="186" height="26" rx="13" fill="#D7E7F1"/>
  <rect x="878" y="628" width="152" height="70" rx="18" fill="#0F2C41"/>
  <rect x="1042" y="628" width="22" height="70" rx="11" fill="#20CFE4"/>
  <rect x="1206" y="194" width="236" height="158" rx="34" fill="#F8FCFF"/>
  <text x="1246" y="252" fill="#214560" font-family="Poppins, Arial, sans-serif" font-size="28" font-weight="700">Order flow</text>
  <path d="M1246 292H1384" stroke="#B9CDDB" stroke-width="18" stroke-linecap="round"/>
  <path d="M1246 324H1342" stroke="#DCE8F0" stroke-width="18" stroke-linecap="round"/>
  <rect x="1206" y="390" width="236" height="158" rx="34" fill="#0F2C41"/>
  <text x="1246" y="448" fill="#F4FBFF" font-family="Poppins, Arial, sans-serif" font-size="28" font-weight="700">Realtime pickup</text>
  <rect x="1246" y="476" width="112" height="20" rx="10" fill="#22D2E5"/>
  <text x="170" y="912" fill="#E8F3F9" font-family="Poppins, Arial, sans-serif" font-size="30" font-weight="600">Portfolio dummy visual for laundry management and mobile service flow</text>
</svg>
